<svg width="1000" height="389" viewBox="0 0 1000 389" fill="none" xmlns="http://www.w3.org/2000/svg">
<path fill-rule="evenodd" clip-rule="evenodd" d="M627.263 2.96205C645.282 14.365 644.742 39.7137 626.25 50.5937L622 53.0945L622.094 62.2302C622.146 67.2547 622.483 75.4454 622.844 80.4319C623.449 88.7973 623.751 89.7832 626.75 93.19C630.445 97.3872 631.057 102.258 628.398 106.307C626.843 108.676 626.942 108.929 631.823 115.004C641.464 127.005 651.247 135.554 669.094 147.573C685.305 158.49 696.923 171.619 703.689 186.664C706.313 192.501 707.618 196.563 710.925 209.192C712.506 215.233 712.247 238.862 710.52 245.998C709.723 249.291 709.055 252.322 709.036 252.734C709.016 253.146 713.663 253.482 719.362 253.482H729.724L730.384 246.248C731.788 230.847 737.02 218.85 746.93 208.308C755.981 198.679 766.71 192.889 782.523 189.1C785.709 188.338 788.978 170.288 790.1 147.256C790.185 145.503 790.314 145.567 791 147.705C791.44 149.077 791.872 154.466 791.96 159.68C792.209 174.474 795.926 188.8 799.677 189.419C806.305 190.514 816.559 194.458 822.722 198.281C841.786 210.109 852.003 229.886 850.695 252.429C850.391 257.674 849.833 262.974 849.454 264.21C848.773 266.435 848.855 266.455 858.883 266.455H869V271.445V276.434H864.5H860V298.887V321.34H869.842H879.684L880.342 303.218C880.704 293.251 881 279.106 881 271.784V258.472H878.5C876.204 258.472 876 258.106 876 253.981C876 249.922 876.228 249.491 878.371 249.491C880.45 249.491 880.815 248.907 881.332 244.751C881.657 242.143 882.017 229.458 882.133 216.56C882.323 195.34 882.184 193.079 880.671 192.787C879.448 192.551 879 191.413 879 188.546C879 185.293 879.34 184.627 881 184.627C882.904 184.627 883 183.962 883 170.814C883 163.216 883.292 151.58 883.649 144.957L884.298 132.914L881.899 132.576C880.284 132.349 879.393 131.485 879.173 129.935C878.918 128.14 879.525 127.376 881.923 126.473L885 125.314V116.552C885 109.428 884.719 107.789 883.5 107.789C882.675 107.789 882 107.116 882 106.292C882 105.461 882.889 104.796 884 104.796C885.69 104.796 886 104.13 886 100.498C886 96.5949 886.505 95.7147 891.5 90.9138C895.978 86.6099 897 85.0182 897 82.3459C897 80.3491 896.413 78.8393 895.5 78.489C893.223 77.6178 893.708 76.1868 896.25 76.2767C897.97 76.3365 898.481 75.8206 898.418 74.0833C898.327 71.5726 899.791 71.5865 901.387 74.1112C902.153 75.3237 901.964 76.2387 900.644 77.6937C897.68 80.9618 899.338 86.2347 904.491 89.9279C909.308 93.3796 911 96.3494 911 101.35C911 104.13 911.386 104.796 913 104.796C915.328 104.796 915.703 107.306 913.5 108.151C912.337 108.596 912 110.545 912 116.825C912 124.91 912.006 124.929 915 126.057C917.343 126.939 918 127.795 918 129.962C918 132.245 917.564 132.737 915.538 132.737C913.083 132.737 913.078 132.757 913.444 141.468C913.646 146.271 913.854 157.733 913.906 166.94L914 183.679L916.5 184.627C918.514 185.392 919 186.26 919 189.093C919 191.945 918.622 192.611 917 192.611C915.077 192.611 915 193.274 915.005 209.824C915.007 219.292 915.301 232.091 915.657 238.265C916.289 249.195 916.367 249.491 918.653 249.491C920.768 249.491 921 249.935 921 253.981C921 258.138 920.809 258.472 918.432 258.472H915.865L916.511 288.658C916.866 305.26 917.332 319.407 917.547 320.092C917.774 320.82 919.618 321.34 921.969 321.34H926V264.853V208.365L923.5 206.403C918.932 202.817 920.9 196.951 926.852 196.409C930.118 196.111 930.214 195.973 930.597 191.003C931.46 179.815 935.037 173.856 945.548 166.098C953.681 160.097 957 156.113 957 152.35C957 150.958 957.45 149.541 958 149.202C958.55 148.863 959 145.693 959 142.158C959 137.317 959.345 135.73 960.399 135.73C961.396 135.73 961.998 137.731 962.5 142.716C962.887 146.558 963.607 149.701 964.101 149.701C964.596 149.701 965 151.013 965 152.618C965 156.368 968.401 160.362 976.512 166.137C986.162 173.01 992 182.859 992 192.27C992 194.975 992.39 195.604 994.066 195.604C998.39 195.604 1000 197.4 1000 202.219C1000 205.929 999.631 206.865 998 207.29C996.029 207.805 996 208.651 996 265.574C996 322.67 996.023 323.335 998 323.335C999.959 323.335 1000 324.001 1000 355.767V388.199H500H0L0.0360107 345.539C0.0720107 302.985 0.0770106 302.871 2.28601 300.251C3.50401 298.806 5.513 297.316 6.75 296.94C8.032 296.552 9 295.459 9 294.401C9 293.38 10.014 291.727 11.252 290.727C13.496 288.915 16 281.633 16 276.919C16 275.555 16.45 274.438 17 274.438C17.55 274.438 18 276.432 18 278.87C18 281.308 18.45 283.579 19 283.918C19.55 284.258 20 285.23 20 286.079C20 286.927 21.125 288.956 22.5 290.586C23.875 292.217 25 294.161 25 294.904C25 295.649 25.923 296.55 27.052 296.908C29.848 297.793 35.241 303.842 36.674 307.701C37.32 309.44 37.882 313.22 37.924 316.101C37.994 320.908 38.193 321.34 40.343 321.34C42.68 321.34 42.687 321.301 43.345 304.666C43.909 290.405 43.787 287.87 42.502 287.153C40.341 285.946 40.653 282.666 43 281.923C44.142 281.561 45 280.413 45 279.247C45 276.163 48.845 269.971 51.866 268.19C53.696 267.111 54.931 265.165 55.768 262.042C57.261 256.471 58.541 256.205 59.357 261.297C59.837 264.295 61.051 266.029 64.982 269.337C68.925 272.655 70.126 274.375 70.611 277.402C71.029 280.011 71.835 281.409 73.114 281.743C75.373 282.332 75.601 285.672 73.5 287.411C72.362 288.354 72 290.911 72 298.011C72 303.158 72.395 307.369 72.877 307.369C73.36 307.369 73.537 305.447 73.272 303.098C72.198 293.591 81.383 282.385 93.864 277.974C105.29 273.936 118 266.308 118 263.489C118 262.442 118.45 261.306 119 260.967C119.55 260.627 120 257.683 120 254.421C120 250.094 120.366 248.493 121.358 248.493C122.285 248.493 122.92 250.453 123.364 254.686C123.721 258.093 124.46 261.326 125.006 261.871C125.553 262.417 126 263.607 126 264.517C126 266.599 134.476 271.749 147.315 277.469C157.883 282.178 164.092 286.755 166.679 291.748L168.305 294.886L169.927 286.908C172.124 276.094 175.314 270.086 182.71 262.83C189.037 256.622 198.872 251.487 204.433 251.487C206.34 251.487 207.096 250.704 208.043 247.745C208.702 245.687 209.637 243.576 210.121 243.054C210.604 242.534 211.045 239.615 211.099 236.568C211.153 233.522 211.507 228.56 211.884 225.541C212.542 220.287 212.604 220.5 213.342 230.531C214.324 243.883 217.089 251.487 220.962 251.487C225.048 251.487 237.075 257.766 241.805 262.371C244.173 264.675 247.436 268.646 249.055 271.193L252 275.827V265.154C252 258.703 251.604 254.48 251 254.48C249.404 254.48 249.845 249.763 251.5 249.13C252.738 248.656 253 246.024 253 234.054C253 221.83 252.765 219.554 251.5 219.554C249.524 219.554 249.57 217.66 251.565 216.897C252.78 216.43 253.077 214.988 252.891 210.448C252.76 207.232 252.956 204.297 253.326 203.928C253.697 203.558 254 202.501 254 201.579C254 200.657 255.621 198.237 257.602 196.201C260.004 193.733 261.038 191.865 260.705 190.596C260.431 189.549 260.813 188.19 261.554 187.577C262.655 186.665 262.795 187.11 262.323 190.014C261.824 193.084 262.171 193.965 264.872 196.483C266.593 198.087 268 200.319 268 201.444C268 202.569 268.788 203.946 269.75 204.506C270.721 205.07 270.944 205.536 270.25 205.553C268.327 205.599 268.56 216.178 270.5 216.921C272.387 217.644 272.468 219.554 270.612 219.554C269.489 219.554 269.221 222.503 269.206 235.021C269.191 247.656 269.445 250.489 270.594 250.489C272.497 250.489 272.374 252.176 270.391 253.284C269.035 254.041 268.874 255.496 269.368 262.564C270.86 283.916 271.2 286.413 272.609 286.413C273.426 286.413 274 287.443 274 288.908C274 290.492 273.436 291.403 272.456 291.403C271.179 291.403 270.963 292.654 271.206 298.637L271.5 305.872L276.378 306.181C281.895 306.532 281.9 306.512 278.48 297.39C277.178 293.917 276.894 290.638 277.224 282.92C277.616 273.766 277.976 272.282 281.576 264.958C290.204 247.406 312.018 230.946 338.506 222.001C353.294 217.006 375.903 205.145 387.49 196.303C394.05 191.296 394.462 190.751 394.177 187.451C393.954 184.877 394.529 183.156 396.316 181.036C398.54 178.398 398.866 176.714 399.966 162.174C400.631 153.393 401.368 146.014 401.604 145.776C402.973 144.397 403.811 148.922 404.784 162.955C405.809 177.736 406.038 178.897 408.517 181.836C410.586 184.289 411.032 185.643 410.573 188.081C410.017 191.039 410.399 191.493 418.244 197.217C436.386 210.452 447.652 216.376 466.5 222.589C470.35 223.858 476.354 226.164 479.843 227.714C483.332 229.263 486.369 230.531 486.593 230.531C486.817 230.531 487 209.201 487 183.131C487 141.662 486.812 135.73 485.5 135.73C484.497 135.73 484 134.73 484 132.712C484 130.218 484.478 129.597 486.75 129.14C489.037 128.68 489.529 128.03 489.672 125.274C489.945 120.011 492.66 115.745 500.169 108.787C507.135 102.332 507.171 102.271 507.721 96.0889C508.383 88.6426 509.502 88.7155 510.282 96.2586C510.957 102.786 511.8 104.104 519 109.909C525.239 114.938 527.996 119.562 527.998 125.003C528 127.941 528.387 128.745 529.8 128.745C533.679 128.745 535.211 132.741 532.484 135.747C531.191 137.174 531.007 141.58 531.234 165.763L531.5 194.107L534.713 187.339C542.326 171.3 552.767 159.541 569 148.725C585.196 137.933 598.447 126.073 607.862 113.94C611.715 108.975 611.893 108.473 610.497 106.484C607.942 102.845 608.598 97.3383 612.054 93.4106C614.975 90.0906 615.148 89.386 616.039 77.1608C616.551 70.1316 617.205 62.0237 617.494 59.1417L618.017 53.9028H611.969C599.842 53.9028 589.132 45.4236 585.5 32.9469C584.896 30.8713 585.376 31.1437 588.36 34.5705C601.933 50.1597 627.12 42.5846 628.797 22.4081C629.42 14.9059 627.419 8.52334 622.987 3.87413C618.439 -0.896822 620.478 -1.33191 627.263 2.96205ZM503.131 141.895C499.303 145.801 498.82 148.294 499.2 162.175L499.5 173.152L508.75 173.439L518 173.725V159.142V144.558L515.077 141.641C511.099 137.671 507.187 137.755 503.131 141.895ZM522.161 144.259C521.463 145.788 521 152.178 521 160.286V173.771L524.75 173.461L528.5 173.152L528.82 162.674C529.202 150.132 527.704 141.718 525.089 141.718C524.117 141.718 522.799 142.861 522.161 144.259ZM490.513 145.332C488.894 149.201 488.352 169.092 489.804 171.373C490.23 172.041 492.135 172.715 494.039 172.87L497.5 173.152L497.185 160.179C496.861 146.889 495.799 141.718 493.392 141.718C492.641 141.718 491.346 143.344 490.513 145.332ZM954.702 216.059C948.576 221.673 948 224.115 948 244.469V262.464H960.5H973V242.458V222.453L968.048 217.51C962.101 211.577 959.859 211.332 954.702 216.059ZM981.16 242.331L980.82 262.613L983.637 262.289C988.502 261.729 989.151 258.954 988.728 240.51C988.425 227.264 988.008 223.39 986.595 220.695L984.838 217.345L983.169 219.697C981.773 221.663 981.444 225.368 981.16 242.331ZM934.402 221.761C932.759 225.393 932.5 228.412 932.5 243.965V261.965L936.75 262.271L941 262.578V244.737C941 231.027 940.631 225.814 939.406 222.226C938.529 219.659 937.473 217.558 937.058 217.558C936.643 217.558 935.448 219.449 934.402 221.761ZM54.635 289.48C52.14 291.438 52 292.02 52 300.457V309.365H61.5H71V302.528C71 294.882 69.507 289.407 67.421 289.407C66.661 289.407 65.749 290.556 65.395 291.962L64.753 294.518L62.958 291.574C61.367 288.964 59.849 287.741 57.885 287.49C57.547 287.447 56.084 288.342 54.635 289.48ZM46.212 300.215L45.925 309.365H48.462C50.935 309.365 51 309.188 51 302.444C51 287.802 46.666 285.784 46.212 300.215ZM169.307 304.107C169.561 305.078 169.785 304.525 169.805 302.878C169.825 301.232 169.618 300.438 169.344 301.113C169.07 301.789 169.053 303.136 169.307 304.107Z" fill="#111111"/>
</svg>
