<svg width="1000" height="390" viewBox="0 0 1000 390" fill="none" xmlns="http://www.w3.org/2000/svg">
<path fill-rule="evenodd" clip-rule="evenodd" d="M372.737 2.96829C354.718 14.3953 355.258 39.7973 373.75 50.7003L378 53.2063L377.906 62.3613C377.854 67.3963 377.517 75.6043 377.156 80.6013C376.551 88.9843 376.249 89.9723 373.25 93.3863C369.555 97.5923 368.943 102.473 371.602 106.531C373.157 108.905 373.058 109.158 368.177 115.246C358.536 127.272 348.753 135.839 330.906 147.883C314.695 158.823 303.077 171.98 296.311 187.057C293.687 192.906 292.382 196.977 289.075 209.632C287.494 215.686 287.753 239.365 289.48 246.516C290.277 249.816 290.945 252.853 290.964 253.266C290.984 253.679 286.337 254.016 280.638 254.016H270.276L269.616 246.766C268.212 231.333 262.98 219.311 253.07 208.746C244.019 199.097 233.29 193.295 217.477 189.498C214.291 188.734 211.022 170.646 209.9 147.566C209.815 145.809 209.686 145.873 209 148.016C208.56 149.391 208.128 154.791 208.04 160.016C207.791 174.841 204.074 189.197 200.323 189.818C193.695 190.915 183.441 194.867 177.278 198.698C158.214 210.551 147.997 230.37 149.305 252.96C149.609 258.216 150.167 263.528 150.546 264.766C151.227 266.996 151.145 267.016 141.117 267.016H131V272.016V277.016H135.5H140V299.516V322.016H130.158H120.316L119.658 303.856C119.296 293.868 119 279.693 119 272.356V259.016H121.5C123.796 259.016 124 258.649 124 254.516C124 250.448 123.772 250.016 121.629 250.016C119.55 250.016 119.185 249.431 118.668 245.266C118.343 242.653 117.983 229.941 117.867 217.016C117.677 195.751 117.816 193.485 119.329 193.193C120.552 192.956 121 191.816 121 188.943C121 185.683 120.66 185.016 119 185.016C117.096 185.016 117 184.349 117 171.173C117 163.559 116.708 151.899 116.351 145.262L115.702 133.194L118.101 132.855C119.716 132.627 120.607 131.762 120.827 130.208C121.082 128.41 120.475 127.644 118.077 126.739L115 125.578V116.797C115 109.658 115.281 108.016 116.5 108.016C117.325 108.016 118 107.341 118 106.516C118 105.683 117.111 105.016 116 105.016C114.31 105.016 114 104.349 114 100.709C114 96.7983 113.495 95.9163 108.5 91.1053C104.022 86.7923 103 85.1973 103 82.5193C103 80.5183 103.587 79.0053 104.5 78.6543C106.777 77.7813 106.292 76.3473 103.75 76.4373C102.03 76.4973 101.519 75.9803 101.582 74.2393C101.673 71.7233 100.209 71.7373 98.613 74.2673C97.847 75.4823 98.036 76.3993 99.356 77.8573C102.32 81.1323 100.662 86.4163 95.509 90.1173C90.692 93.5763 89 96.5523 89 101.563C89 104.349 88.614 105.016 87 105.016C84.672 105.016 84.297 107.532 86.5 108.378C87.663 108.824 88 110.778 88 117.071C88 125.173 87.994 125.192 85 126.322C82.657 127.206 82 128.064 82 130.235C82 132.523 82.436 133.016 84.462 133.016C86.917 133.016 86.922 133.036 86.556 141.766C86.354 146.579 86.146 158.065 86.094 167.291L86 184.066L83.5 185.016C81.486 185.782 81 186.652 81 189.491C81 192.349 81.378 193.016 83 193.016C84.923 193.016 85 193.681 84.995 210.266C84.993 219.754 84.699 232.579 84.343 238.766C83.711 249.72 83.633 250.016 81.347 250.016C79.232 250.016 79 250.461 79 254.516C79 258.681 79.191 259.016 81.568 259.016H84.135L83.489 289.266C83.134 305.903 82.668 320.079 82.453 320.766C82.226 321.495 80.382 322.016 78.031 322.016H74V265.41V208.804L76.5 206.837C81.068 203.244 79.1 197.365 73.148 196.822C69.882 196.524 69.786 196.385 69.403 191.405C68.54 180.193 64.963 174.222 54.452 166.448C46.319 160.434 43 156.441 43 152.671C43 151.276 42.55 149.856 42 149.516C41.45 149.176 41 146 41 142.457C41 137.606 40.655 136.016 39.601 136.016C38.604 136.016 38.002 138.021 37.5 143.016C37.113 146.866 36.393 150.016 35.899 150.016C35.404 150.016 35 151.331 35 152.939C35 156.697 31.599 160.699 23.488 166.487C13.838 173.374 8 183.244 8 192.675C8 195.385 7.61 196.016 5.934 196.016C1.61 196.016 0 197.815 0 202.645C0 206.362 0.369 207.3 2 207.726C3.971 208.242 4 209.09 4 266.133C4 323.349 3.977 324.016 2 324.016C0.041 324.016 0 324.683 0 356.516V389.016H500H1000L999.964 346.266C999.928 303.623 999.923 303.509 997.714 300.883C996.496 299.435 994.487 297.942 993.25 297.565C991.968 297.176 991 296.081 991 295.021C991 293.998 989.986 292.341 988.748 291.339C986.504 289.523 984 282.226 984 277.502C984 276.135 983.55 275.016 983 275.016C982.45 275.016 982 277.014 982 279.457C982 281.9 981.55 284.176 981 284.516C980.45 284.856 980 285.83 980 286.681C980 287.531 978.875 289.564 977.5 291.198C976.125 292.832 975 294.78 975 295.525C975 296.271 974.077 297.174 972.948 297.533C970.152 298.42 964.759 304.482 963.326 308.349C962.68 310.091 962.118 313.879 962.076 316.766C962.006 321.584 961.807 322.016 959.657 322.016C957.32 322.016 957.313 321.977 956.655 305.307C956.091 291.016 956.213 288.476 957.498 287.757C959.659 286.548 959.347 283.261 957 282.516C955.858 282.154 955 281.003 955 279.835C955 276.744 951.155 270.539 948.134 268.754C946.304 267.673 945.069 265.723 944.232 262.594C942.739 257.011 941.459 256.744 940.643 261.847C940.163 264.851 938.949 266.589 935.018 269.904C931.075 273.229 929.874 274.953 929.389 277.986C928.971 280.6 928.165 282.001 926.886 282.336C924.627 282.926 924.399 286.273 926.5 288.016C927.638 288.961 928 291.523 928 298.638C928 303.796 927.605 308.016 927.123 308.016C926.64 308.016 926.463 306.09 926.728 303.736C927.802 294.209 918.617 282.979 906.136 278.559C894.71 274.513 882 266.869 882 264.044C882 262.994 881.55 261.856 881 261.516C880.45 261.176 880 258.225 880 254.957C880 250.62 879.634 249.016 878.642 249.016C877.715 249.016 877.08 250.98 876.636 255.222C876.279 258.636 875.54 261.876 874.994 262.422C874.447 262.969 874 264.162 874 265.074C874 267.16 865.524 272.321 852.685 278.053C842.117 282.772 835.908 287.359 833.321 292.362L831.695 295.507L830.073 287.512C827.876 276.675 824.686 270.654 817.29 263.383C810.963 257.162 801.128 252.016 795.567 252.016C793.66 252.016 792.904 251.232 791.957 248.266C791.298 246.204 790.363 244.089 789.879 243.566C789.396 243.044 788.955 240.119 788.901 237.066C788.847 234.014 788.493 229.041 788.116 226.016C787.458 220.751 787.396 220.964 786.658 231.016C785.676 244.396 782.911 252.016 779.038 252.016C774.952 252.016 762.925 258.309 758.195 262.923C755.827 265.232 752.564 269.211 750.945 271.764L748 276.408V265.712C748 259.248 748.396 255.016 749 255.016C750.596 255.016 750.155 250.289 748.5 249.654C747.262 249.179 747 246.542 747 234.547C747 222.297 747.235 220.016 748.5 220.016C750.476 220.016 750.43 218.118 748.435 217.353C747.22 216.886 746.923 215.44 747.109 210.891C747.24 207.668 747.044 204.727 746.674 204.357C746.303 203.986 746 202.927 746 202.003C746 201.079 744.379 198.654 742.398 196.614C739.996 194.141 738.962 192.269 739.295 190.997C739.569 189.948 739.187 188.586 738.446 187.972C737.345 187.058 737.205 187.504 737.677 190.414C738.176 193.49 737.829 194.373 735.128 196.897C733.407 198.504 732 200.741 732 201.868C732 202.995 731.212 204.375 730.25 204.936C729.279 205.502 729.056 205.969 729.75 205.986C731.673 206.032 731.44 216.633 729.5 217.378C727.613 218.102 727.532 220.016 729.388 220.016C730.511 220.016 730.779 222.971 730.794 235.516C730.809 248.177 730.555 251.016 729.406 251.016C727.503 251.016 727.626 252.707 729.609 253.817C730.965 254.576 731.126 256.034 730.632 263.117C729.14 284.514 728.8 287.016 727.391 287.016C726.574 287.016 726 288.048 726 289.516C726 291.103 726.564 292.016 727.544 292.016C728.821 292.016 729.037 293.27 728.794 299.266L728.5 306.516L723.622 306.826C718.105 307.177 718.1 307.157 721.52 298.016C722.822 294.536 723.106 291.25 722.776 283.516C722.384 274.342 722.024 272.855 718.424 265.516C709.796 247.927 687.982 231.432 661.494 222.468C646.706 217.463 624.097 205.577 612.51 196.716C605.95 191.699 605.538 191.152 605.823 187.845C606.046 185.266 605.471 183.541 603.684 181.417C601.46 178.773 601.134 177.086 600.034 162.515C599.369 153.716 598.632 146.321 598.396 146.083C597.027 144.701 596.189 149.235 595.216 163.298C594.191 178.11 593.962 179.273 591.483 182.219C589.414 184.677 588.968 186.034 589.427 188.477C589.983 191.441 589.601 191.896 581.756 197.632C563.614 210.895 552.348 216.831 533.5 223.057C529.65 224.329 523.646 226.64 520.157 228.193C516.668 229.746 513.631 231.016 513.407 231.016C513.183 231.016 513 209.641 513 183.516C513 141.96 513.188 136.016 514.5 136.016C515.503 136.016 516 135.013 516 132.991C516 130.492 515.522 129.87 513.25 129.412C510.963 128.951 510.471 128.299 510.328 125.538C510.055 120.263 507.34 115.988 499.831 109.016C492.865 102.547 492.829 102.486 492.279 96.2913C491.617 88.8293 490.498 88.9023 489.718 96.4613C489.043 103.002 488.2 104.323 481 110.14C474.761 115.18 472.004 119.814 472.002 125.266C472 128.21 471.613 129.016 470.2 129.016C466.321 129.016 464.789 133.02 467.516 136.033C468.809 137.463 468.993 141.878 468.766 166.112L468.5 194.516L465.287 187.733C457.674 171.66 447.233 159.877 431 149.038C414.804 138.223 401.553 126.338 392.138 114.18C388.285 109.204 388.107 108.701 389.503 106.708C392.058 103.061 391.402 97.5433 387.946 93.6073C385.025 90.2803 384.852 89.5743 383.961 77.3233C383.449 70.2793 382.795 62.1543 382.506 59.2663L381.983 54.0163H388.031C400.158 54.0163 410.868 45.5193 414.5 33.0163C415.104 30.9363 414.624 31.2093 411.64 34.6433C398.067 50.2653 372.88 42.6743 371.203 22.4553C370.58 14.9373 372.581 8.54129 377.013 3.88229C381.561 -0.898711 379.522 -1.33471 372.737 2.96829ZM496.869 142.194C500.697 146.108 501.18 148.606 500.8 162.516L500.5 173.516L491.25 173.804L482 174.091V159.477V144.862L484.923 141.939C488.901 137.961 492.813 138.045 496.869 142.194ZM477.839 144.563C478.537 146.095 479 152.498 479 160.623V174.137L475.25 173.826L471.5 173.516L471.18 163.016C470.798 150.448 472.296 142.016 474.911 142.016C475.883 142.016 477.201 143.162 477.839 144.563ZM509.487 145.638C511.106 149.515 511.648 169.448 510.196 171.734C509.77 172.403 507.865 173.078 505.961 173.234L502.5 173.516L502.815 160.516C503.139 147.198 504.201 142.016 506.608 142.016C507.359 142.016 508.654 143.646 509.487 145.638ZM45.298 216.514C51.424 222.14 52 224.587 52 244.984V263.016H39.5H27V242.968V222.921L31.952 217.968C37.899 212.022 40.141 211.777 45.298 216.514ZM18.84 242.841L19.18 263.166L16.363 262.841C11.498 262.28 10.849 259.499 11.272 241.016C11.575 227.742 11.992 223.86 13.405 221.159L15.162 217.802L16.831 220.159C18.227 222.13 18.556 225.842 18.84 242.841ZM65.598 222.228C67.241 225.867 67.5 228.893 67.5 244.478V262.516L63.25 262.823L59 263.131V245.252C59 231.513 59.369 226.289 60.594 222.694C61.471 220.121 62.527 218.016 62.942 218.016C63.357 218.016 64.552 219.911 65.598 222.228ZM945.365 290.089C947.86 292.051 948 292.635 948 301.089V310.016H938.5H929V303.165C929 295.503 930.493 290.016 932.579 290.016C933.339 290.016 934.251 291.168 934.605 292.577L935.247 295.138L937.042 292.188C938.633 289.572 940.151 288.347 942.115 288.095C942.453 288.052 943.916 288.949 945.365 290.089ZM953.788 300.847L954.075 310.016H951.538C949.065 310.016 949 309.839 949 303.081C949 288.408 953.334 286.386 953.788 300.847ZM830.693 304.747C830.439 305.72 830.215 305.166 830.195 303.516C830.175 301.866 830.382 301.07 830.656 301.747C830.93 302.424 830.947 303.774 830.693 304.747Z" fill="#111111"/>
</svg>
